<?xml version="1.0" encoding="utf-8"?>
<!-- Generated by Mocodo 4.2.12 -->
<svg width="432" height="596" viewBox="0 0 432 596" xmlns="http://www.w3.org/2000/svg">
<rect x="0" y="0" width="432" height="596" fill="#ffffbf" stroke="none" stroke-width="0"/>

<!-- Association DIAGNOSTIQUE -->
<g>
	<line x1="366" y1="298" x2="230" y2="298" stroke="#f46d43" stroke-width="2"/>
	<line x1="80" y1="298" x2="230" y2="298" stroke="#f46d43" stroke-width="2"/>
	<g>
		<path d="M263 273 a14 14 90 0 1 14 14 V298 h-94 V287 a14 14 90 0 1 14 -14" fill="#fdae61" stroke="#fdae61" stroke-width="0"/>
		<path d="M277 298 v11 a14 14 90 0 1 -14 14 H197 a14 14 90 0 1 -14 -14 V298 H94" fill="#fee08b" stroke="#fee08b" stroke-width="0"/>
		<rect x="183" y="273" width="94" height="50" fill="none" rx="14" stroke="#f46d43" stroke-width="2"/>
		<line x1="183" y1="298" x2="277" y2="298" stroke="#f46d43" stroke-width="1"/>
		<text x="190" y="290.75" fill="#000000" font-family="Verdana" font-size="12">Diagnostique</text>
	</g>
	<text x="282" y="315" fill="#3288bd" font-family="Verdana" font-size="12">0,N</text>
	<text x="156" y="315" fill="#3288bd" font-family="Verdana" font-size="12">0,1</text>
</g>

<!-- Entity TUMEUR -->
<g>
	<g>
		<rect x="9" y="9" width="142" height="25" fill="#abdda4" stroke="none" stroke-width="0" opacity="1"/>
		<rect x="9" y="34" width="142" height="553" fill="#e6f598" stroke="none" stroke-width="0" opacity="1"/>
		<rect x="9" y="9" width="142" height="578" fill="none" stroke="#66c2a5" stroke-width="2" opacity="1"/>
		<line x1="9" y1="34" x2="151" y2="34" stroke="#66c2a5" stroke-width="1"/>
	</g>
	<text x="56" y="26.75" fill="#000000" font-family="Verdana" font-size="12">Tumeur</text>
	<text x="14" y="51.8" fill="#000000" font-family="Verdana" font-size="12">id_tumeur</text>
	<line x1="14" y1="54" x2="77" y2="54" stroke="#000000" stroke-width="1"/>
	<text x="14" y="68.8" fill="#000000" font-family="Verdana" font-size="12">rayon_moyen</text>
	<text x="14" y="85.8" fill="#000000" font-family="Verdana" font-size="12">texture_moyenne</text>
	<text x="14" y="102.8" fill="#000000" font-family="Verdana" font-size="12">perimetre_moyen</text>
	<text x="14" y="119.8" fill="#000000" font-family="Verdana" font-size="12">air_moyenne</text>
	<text x="14" y="136.8" fill="#000000" font-family="Verdana" font-size="12">uniformite_moyenne</text>
	<text x="14" y="153.8" fill="#000000" font-family="Verdana" font-size="12">compact_moyen</text>
	<text x="14" y="170.8" fill="#000000" font-family="Verdana" font-size="12">concavite_moyenne</text>
	<text x="14" y="187.8" fill="#000000" font-family="Verdana" font-size="12">nconcavite_moyenne</text>
	<text x="14" y="204.8" fill="#000000" font-family="Verdana" font-size="12">symetrie_moyenne</text>
	<text x="14" y="221.8" fill="#000000" font-family="Verdana" font-size="12">dim_fractal_moyenne</text>
	<text x="14" y="238.8" fill="#000000" font-family="Verdana" font-size="12">rayon_se</text>
	<text x="14" y="255.8" fill="#000000" font-family="Verdana" font-size="12">texture_se</text>
	<text x="14" y="272.8" fill="#000000" font-family="Verdana" font-size="12">perimetre_se</text>
	<text x="14" y="289.8" fill="#000000" font-family="Verdana" font-size="12">aire_se</text>
	<text x="14" y="306.8" fill="#000000" font-family="Verdana" font-size="12">uniformite_se</text>
	<text x="14" y="323.8" fill="#000000" font-family="Verdana" font-size="12">compact_se</text>
	<text x="14" y="340.8" fill="#000000" font-family="Verdana" font-size="12">concavite_se</text>
	<text x="14" y="357.8" fill="#000000" font-family="Verdana" font-size="12">nconcavite_se</text>
	<text x="14" y="374.8" fill="#000000" font-family="Verdana" font-size="12">symmetrie_se</text>
	<text x="14" y="391.8" fill="#000000" font-family="Verdana" font-size="12">dim_fractal_se</text>
	<text x="14" y="408.8" fill="#000000" font-family="Verdana" font-size="12">rayon_worst</text>
	<text x="14" y="425.8" fill="#000000" font-family="Verdana" font-size="12">texture_worst</text>
	<text x="14" y="442.8" fill="#000000" font-family="Verdana" font-size="12">perimetre_worst</text>
	<text x="14" y="459.8" fill="#000000" font-family="Verdana" font-size="12">aire_worst</text>
	<text x="14" y="476.8" fill="#000000" font-family="Verdana" font-size="12">uniformite_worst</text>
	<text x="14" y="493.8" fill="#000000" font-family="Verdana" font-size="12">compact_worst</text>
	<text x="14" y="510.8" fill="#000000" font-family="Verdana" font-size="12">concavite_worst</text>
	<text x="14" y="527.8" fill="#000000" font-family="Verdana" font-size="12">nconcave_worst</text>
	<text x="14" y="544.8" fill="#000000" font-family="Verdana" font-size="12">symmetrie_worst</text>
	<text x="14" y="561.8" fill="#000000" font-family="Verdana" font-size="12">dim_fractal_worst</text>
	<text x="14" y="578.8" fill="#000000" font-family="Verdana" font-size="12">code_diagnostic</text>
</g>

<!-- Entity DIAGNOSTIC -->
<g>
	<g>
		<rect x="309" y="264" width="114" height="25" fill="#abdda4" stroke="none" stroke-width="0" opacity="1"/>
		<rect x="309" y="289" width="114" height="43" fill="#e6f598" stroke="none" stroke-width="0" opacity="1"/>
		<rect x="309" y="264" width="114" height="68" fill="none" stroke="#66c2a5" stroke-width="2" opacity="1"/>
		<line x1="309" y1="289" x2="423" y2="289" stroke="#66c2a5" stroke-width="1"/>
	</g>
	<text x="334" y="281.75" fill="#000000" font-family="Verdana" font-size="12">Diagnostic</text>
	<text x="314" y="306.8" fill="#000000" font-family="Verdana" font-size="12">code_diagnostic</text>
	<line x1="314" y1="309" x2="412" y2="309" stroke="#000000" stroke-width="1"/>
	<text x="314" y="323.8" fill="#000000" font-family="Verdana" font-size="12">libelle_diagnostic</text>
</g>
</svg>